{
  "accessors": [
    {
      "bufferView": 2,
      "componentType": 5126,
      "count": 2919,
      "max": [
        0.7821483612060547,
        10.29571533203125,
        0.777069091796875
      ],
      "min": [
        -0.7792682647705078,
        9.924712181091309,
        -0.7828826904296875
      ],
      "type": "VEC3"
    },
    {
      "bufferView": 2,
      "byteOffset": 35028,
      "componentType": 5126,
      "count": 2919,
      "max": [
        0.9992381930351257,
        1.0,
        0.9998087882995605
      ],
      "min": [
        -0.9998597502708435,
        -0.255685418844223,
        -0.9982053637504578
      ],
      "type": "VEC3"
    },
    {
      "bufferView": 1,
      "componentType": 5126,
      "count": 2919,
      "max": [
        0.9923797845840454,
        0.9919213056564331
      ],
      "min": [
        0.011527732014656067,
        0.00807604193687439
      ],
      "type": "VEC2"
    },
    {
      "bufferView": 0,
      "componentType": 5125,
      "count": 15996,
      "type": "SCALAR"
    },
    {
      "bufferView": 2,
      "byteOffset": 70056,
      "componentType": 5126,
      "count": 4800,
      "max": [
        1.4379024505615234,
        8.344379425048828,
        1.4379024505615234
      ],
      "min": [
        -1.4379024505615234,
        0.20621013641357422,
        -1.4379024505615234
      ],
      "type": "VEC3"
    },
    {
      "bufferView": 2,
      "byteOffset": 127656,
      "componentType": 5126,
      "count": 4800,
      "max": [
        1.0,
        0.9997121095657349,
        1.0
      ],
      "min": [
        -1.0,
        -0.9995133876800537,
        -1.0
      ],
      "type": "VEC3"
    },
    {
      "bufferView": 1,
      "byteOffset": 23352,
      "componentType": 5126,
      "count": 4800,
      "max": [
        0.4224179685115814,
        0.9672973155975342
      ],
      "min": [
        0.3851516544818878,
        0.893765389919281
      ],
      "type": "VEC2"
    },
    {
      "bufferView": 0,
      "byteOffset": 63984,
      "componentType": 5125,
      "count": 28308,
      "type": "SCALAR"
    },
    {
      "bufferView": 2,
      "byteOffset": 185256,
      "componentType": 5126,
      "count": 18164,
      "max": [
        1.585073471069336,
        10.279300689697266,
        1.5808792114257813
      ],
      "min": [
        -1.5850753784179688,
        0.0,
        -1.5808792114257813
      ],
      "type": "VEC3"
    },
    {
      "bufferView": 2,
      "byteOffset": 403224,
      "componentType": 5126,
      "count": 18164,
      "max": [
        1.0,
        0.9996909499168396,
        1.0
      ],
      "min": [
        -1.0,
        -0.9994407296180725,
        -1.0
      ],
      "type": "VEC3"
    },
    {
      "bufferView": 1,
      "byteOffset": 61752,
      "componentType": 5126,
      "count": 18164,
      "max": [
        0.9994071125984192,
        1.0027062892913818
      ],
      "min": [
        0.0006126109510660172,
        -0.0026745200157165527
      ],
      "type": "VEC2"
    },
    {
      "bufferView": 0,
      "byteOffset": 177216,
      "componentType": 5125,
      "count": 107988,
      "type": "SCALAR"
    },
    {
      "bufferView": 2,
      "byteOffset": 621192,
      "componentType": 5126,
      "count": 964,
      "max": [
        1.5204811096191406,
        6.21400260925293,
        1.5288925170898438
      ],
      "min": [
        -1.5204811096191406,
        4.490056991577148,
        -1.5288925170898438
      ],
      "type": "VEC3"
    },
    {
      "bufferView": 2,
      "byteOffset": 632760,
      "componentType": 5126,
      "count": 964,
      "max": [
        1.0,
        1.395160779793514e-06,
        1.0
      ],
      "min": [
        -1.0,
        -2.083746494463412e-06,
        -1.0
      ],
      "type": "VEC3"
    },
    {
      "bufferView": 1,
      "byteOffset": 207064,
      "componentType": 5126,
      "count": 964,
      "max": [
        0.999407172203064,
        1.0027062892913818
      ],
      "min": [
        0.0006126109510660172,
        -0.0026745200157165527
      ],
      "type": "VEC2"
    },
    {
      "bufferView": 0,
      "byteOffset": 609168,
      "componentType": 5125,
      "count": 2880,
      "type": "SCALAR"
    },
    {
      "bufferView": 2,
      "byteOffset": 644328,
      "componentType": 5126,
      "count": 65532,
      "max": [
        1.5681754350662231,
        10.330615043640137,
        1.5890626907348633
      ],
      "min": [
        -1.5398045778274536,
        -0.01835675537586212,
        -1.597980260848999
      ],
      "type": "VEC3"
    },
    {
      "bufferView": 2,
      "byteOffset": 1430712,
      "componentType": 5126,
      "count": 65532,
      "max": [
        0.9999405145645142,
        0.9999942779541016,
        0.9999874830245972
      ],
      "min": [
        -0.9999809265136719,
        -0.9999930262565613,
        -0.9998973608016968
      ],
      "type": "VEC3"
    },
    {
      "bufferView": 1,
      "byteOffset": 214776,
      "componentType": 5126,
      "count": 65532,
      "max": [
        1.0,
        1.0
      ],
      "min": [
        0.41333335638046265,
        0.0
      ],
      "type": "VEC2"
    },
    {
      "bufferView": 0,
      "byteOffset": 620688,
      "componentType": 5125,
      "count": 285909,
      "type": "SCALAR"
    },
    {
      "bufferView": 2,
      "byteOffset": 2217096,
      "componentType": 5126,
      "count": 21259,
      "max": [
        1.5782746076583862,
        10.281956672668457,
        1.5398045778274536
      ],
      "min": [
        -1.5608350038528442,
        -0.017769187688827515,
        -1.5897587537765503
      ],
      "type": "VEC3"
    },
    {
      "bufferView": 2,
      "byteOffset": 2472204,
      "componentType": 5126,
      "count": 21259,
      "max": [
        0.9999777674674988,
        0.9999924302101135,
        0.9999527931213379
      ],
      "min": [
        -0.999790370464325,
        -0.9999904632568359,
        -0.9999294877052307
      ],
      "type": "VEC3"
    },
    {
      "bufferView": 1,
      "byteOffset": 739032,
      "componentType": 5126,
      "count": 21259,
      "max": [
        1.0,
        1.0
      ],
      "min": [
        0.41333335638046265,
        0.0
      ],
      "type": "VEC2"
    },
    {
      "bufferView": 0,
      "byteOffset": 1764324,
      "componentType": 5125,
      "count": 92715,
      "type": "SCALAR"
    }
  ],
  "asset": {
    "extras": {
      "author": "MemoRorschach (https://sketchfab.com/memororschach)",
      "license": "CC-BY-4.0 (http://creativecommons.org/licenses/by/4.0/)",
      "source": "https://sketchfab.com/3d-models/coca-cola-bottle-34075fedb0ef40d9a172231134849914",
      "title": "Coca Cola Bottle"
    },
    "generator": "Sketchfab-15.0.0",
    "version": "2.0"
  },
  "bufferViews": [
    {
      "buffer": 0,
      "byteLength": 2135184,
      "name": "floatBufferViews",
      "target": 34963
    },
    {
      "buffer": 0,
      "byteLength": 909104,
      "byteOffset": 2135184,
      "byteStride": 8,
      "name": "floatBufferViews",
      "target": 34962
    },
    {
      "buffer": 0,
      "byteLength": 2727312,
      "byteOffset": 3044288,
      "byteStride": 12,
      "name": "floatBufferViews",
      "target": 34962
    }
  ],
  "buffers": [
    {
      "byteLength": 5771600,
      "uri": "scene.bin"
    }
  ],
  "extensionsUsed": [
    "KHR_materials_specular",
    "KHR_materials_transmission"
  ],
  "images": [
    {
      "uri": "textures/CorcholataSt_baseColor.jpeg"
    },
    {
      "uri": "textures/EtiquetaBotellaSt_baseColor.jpeg"
    }
  ],
  "materials": [
    {
      "doubleSided": true,
      "extensions": {
        "KHR_materials_specular": {
          "specularColorFactor": [
            1.0,
            1.0,
            1.0
          ],
          "specularFactor": 0.7847642964245224
        }
      },
      "name": "CorcholataSt",
      "pbrMetallicRoughness": {
        "baseColorTexture": {
          "index": 0
        },
        "metallicFactor": 0.0,
        "roughnessFactor": 0.3310455803293877
      }
    },
    {
      "alphaMode": "BLEND",
      "doubleSided": true,
      "extensions": {
        "KHR_materials_specular": {
          "specularColorFactor": [
            1.0,
            1.0,
            1.0
          ],
          "specularFactor": 1.0
        }
      },
      "name": "RefrescoSt",
      "pbrMetallicRoughness": {
        "baseColorFactor": [
          0.05729783433459911,
          0.0030004458844429486,
          0.0030004458844429486,
          0.46171569284782576
        ],
        "metallicFactor": 0.18742914264119662,
        "roughnessFactor": 0.0
      }
    },
    {
      "alphaMode": "BLEND",
      "doubleSided": true,
      "extensions": {
        "KHR_materials_specular": {
          "specularColorFactor": [
            1.0,
            1.0,
            1.0
          ],
          "specularFactor": 1.0
        },
        "KHR_materials_transmission": {
          "transmissionFactor": 1.0
        }
      },
      "name": "BotellaSt",
      "pbrMetallicRoughness": {
        "baseColorFactor": [
          0.0,
          0.0,
          0.0,
          0.25
        ],
        "metallicFactor": 0.7664785264107471,
        "roughnessFactor": 0.0
      }
    },
    {
      "doubleSided": true,
      "extensions": {
        "KHR_materials_specular": {
          "specularColorFactor": [
            1.0,
            1.0,
            1.0
          ],
          "specularFactor": 1.0
        }
      },
      "name": "EtiquetaBotellaSt",
      "pbrMetallicRoughness": {
        "baseColorTexture": {
          "index": 1
        },
        "metallicFactor": 0.0,
        "roughnessFactor": 0.4712364837683315
      }
    },
    {
      "alphaMode": "BLEND",
      "doubleSided": true,
      "extensions": {
        "KHR_materials_specular": {
          "specularColorFactor": [
            1.0,
            1.0,
            1.0
          ],
          "specularFactor": 1.0
        },
        "KHR_materials_transmission": {
          "transmissionFactor": 0.8857139374139045
        }
      },
      "name": "GotasSt",
      "pbrMetallicRoughness": {
        "baseColorFactor": [
          0.0,
          0.0,
          0.0,
          0.25
        ],
        "metallicFactor": 0.0,
        "roughnessFactor": 0.0
      }
    }
  ],
  "meshes": [
    {
      "name": "CorcholataMesh_CorcholataSt_0",
      "primitives": [
        {
          "attributes": {
            "NORMAL": 1,
            "POSITION": 0,
            "TEXCOORD_0": 2
          },
          "indices": 3,
          "material": 0,
          "mode": 4
        }
      ]
    },
    {
      "name": "RefrescoMesh_RefrescoSt_0",
      "primitives": [
        {
          "attributes": {
            "NORMAL": 5,
            "POSITION": 4,
            "TEXCOORD_0": 6
          },
          "indices": 7,
          "material": 1,
          "mode": 4
        }
      ]
    },
    {
      "name": "BotellaMesh_BotellaSt_0",
      "primitives": [
        {
          "attributes": {
            "NORMAL": 9,
            "POSITION": 8,
            "TEXCOORD_0": 10
          },
          "indices": 11,
          "material": 2,
          "mode": 4
        }
      ]
    },
    {
      "name": "EtiquetaMesh_EtiquetaBotellaSt_0",
      "primitives": [
        {
          "attributes": {
            "NORMAL": 13,
            "POSITION": 12,
            "TEXCOORD_0": 14
          },
          "indices": 15,
          "material": 3,
          "mode": 4
        }
      ]
    },
    {
      "name": "waterDrop_GotasSt_0",
      "primitives": [
        {
          "attributes": {
            "NORMAL": 17,
            "POSITION": 16,
            "TEXCOORD_0": 18
          },
          "indices": 19,
          "material": 4,
          "mode": 4
        }
      ]
    },
    {
      "name": "waterDrop_GotasSt_0",
      "primitives": [
        {
          "attributes": {
            "NORMAL": 21,
            "POSITION": 20,
            "TEXCOORD_0": 22
          },
          "indices": 23,
          "material": 4,
          "mode": 4
        }
      ]
    }
  ],
  "nodes": [
    {
      "children": [
        1
      ],
      "matrix": [
        3.033639430999756,
        0.0,
        0.0,
        0.0,
        0.0,
        6.736032689413376e-16,
        -3.033639430999756,
        0.0,
        0.0,
        3.033639430999756,
        6.736032689413376e-16,
        0.0,
        0.0,
        0.0,
        0.0,
        1.0
      ],
      "name": "Sketchfab_model"
    },
    {
      "children": [
        2
      ],
      "matrix": [
        0.009999999776482582,
        0.0,
        0.0,
        0.0,
        0.0,
        0.0,
        0.009999999776482582,
        0.0,
        0.0,
        -0.009999999776482582,
        0.0,
        0.0,
        0.0,
        0.0,
        0.0,
        1.0
      ],
      "name": "Botella.fbx"
    },
    {
      "children": [
        3
      ],
      "name": "RootNode"
    },
    {
      "children": [
        4,
        6,
        8,
        10,
        12
      ],
      "name": "Botella_grp"
    },
    {
      "children": [
        5
      ],
      "name": "CorcholataMesh"
    },
    {
      "mesh": 0,
      "name": "CorcholataMesh_CorcholataSt_0"
    },
    {
      "children": [
        7
      ],
      "name": "RefrescoMesh"
    },
    {
      "mesh": 1,
      "name": "RefrescoMesh_RefrescoSt_0"
    },
    {
      "children": [
        9
      ],
      "name": "BotellaMesh"
    },
    {
      "mesh": 2,
      "name": "BotellaMesh_BotellaSt_0"
    },
    {
      "children": [
        11
      ],
      "name": "EtiquetaMesh"
    },
    {
      "mesh": 3,
      "name": "EtiquetaMesh_EtiquetaBotellaSt_0"
    },
    {
      "children": [
        13,
        14
      ],
      "name": "waterDrop"
    },
    {
      "mesh": 4,
      "name": "waterDrop_GotasSt_0"
    },
    {
      "mesh": 5,
      "name": "waterDrop_GotasSt_0"
    }
  ],
  "samplers": [
    {
      "magFilter": 9729,
      "minFilter": 9987,
      "wrapS": 10497,
      "wrapT": 10497
    }
  ],
  "scene": 0,
  "scenes": [
    {
      "name": "Sketchfab_Scene",
      "nodes": [
        0
      ]
    }
  ],
  "textures": [
    {
      "sampler": 0,
      "source": 0
    },
    {
      "sampler": 0,
      "source": 1
    }
  ]
}
